# xmcd CD database file
#
# Track frame offsets:
#	150
#	2630
#	13955
#	17925
#	38077
#	61712
#	82630
#	95332
#	105707
#	116940
#	122555
#	125615
#	153325
#
# Disc length: 2192 seconds
#
# Revision: 0
# Processed by: cddbd v1.5.1PL0 Copyright (c) Steve Scherf et al.
# Submitted via: CDex 1.51
#
DISCID=99088e0d
DTITLE=Nathalie Wise - raise hands high
DYEAR=2004
DGENRE=Pop
TTITLE0=waking
TTITLE1=rising light
TTITLE2=start
TTITLE3=voice in your mind
TTITLE4=sky high blue
TTITLE5=under the cloud
TTITLE6=the end
TTITLE7=recollect
TTITLE8=a streak of light
TTITLE9=start, again
TTITLE10=a breath
TTITLE11=raise hands high
TTITLE12=asleep or awake
EXTD=YEAR: 2004
EXTT0=
EXTT1=
EXTT2=
EXTT3=
EXTT4=
EXTT5=
EXTT6=
EXTT7=
EXTT8=
EXTT9=
EXTT10=
EXTT11=
EXTT12=
PLAYORDER=
